<svg width="720" height="480" viewBox="0 0 720 480" fill="none" xmlns="http://www.w3.org/2000/svg">
  <rect width="720" height="480" rx="40" fill="url(#paint0_linear)" />
  <rect x="80" y="90" width="260" height="160" rx="28" fill="url(#paint1_linear)" opacity="0.92" />
  <rect x="360" y="90" width="280" height="140" rx="28" fill="url(#paint2_linear)" opacity="0.94" />
  <rect x="110" y="280" width="240" height="130" rx="30" fill="url(#paint3_linear)" opacity="0.9" />
  <rect x="360" y="260" width="280" height="160" rx="32" fill="url(#paint4_linear)" opacity="0.95" />
  <circle cx="210" cy="200" r="56" fill="#FFFFFF" opacity="0.14" />
  <circle cx="520" cy="340" r="74" fill="#FFFFFF" opacity="0.1" />
  <rect x="120" y="130" width="170" height="12" rx="6" fill="white" opacity="0.7" />
  <rect x="120" y="158" width="140" height="12" rx="6" fill="white" opacity="0.5" />
  <rect x="390" y="125" width="200" height="12" rx="6" fill="white" opacity="0.7" />
  <rect x="390" y="153" width="160" height="12" rx="6" fill="white" opacity="0.5" />
  <rect x="390" y="181" width="120" height="12" rx="6" fill="white" opacity="0.38" />
  <rect x="390" y="305" width="220" height="12" rx="6" fill="white" opacity="0.7" />
  <rect x="390" y="333" width="180" height="12" rx="6" fill="white" opacity="0.55" />
  <rect x="390" y="361" width="140" height="12" rx="6" fill="white" opacity="0.42" />
  <defs>
    <linearGradient id="paint0_linear" x1="140" y1="40" x2="580" y2="440" gradientUnits="userSpaceOnUse">
      <stop stop-color="#E2E8F0" />
      <stop offset="1" stop-color="#EEF2FF" />
    </linearGradient>
    <linearGradient id="paint1_linear" x1="80" y1="90" x2="340" y2="250" gradientUnits="userSpaceOnUse">
      <stop stop-color="#1E40AF" />
      <stop offset="1" stop-color="#3B82F6" />
    </linearGradient>
    <linearGradient id="paint2_linear" x1="360" y1="90" x2="640" y2="230" gradientUnits="userSpaceOnUse">
      <stop stop-color="#155E75" />
      <stop offset="1" stop-color="#0F766E" />
    </linearGradient>
    <linearGradient id="paint3_linear" x1="110" y1="280" x2="350" y2="410" gradientUnits="userSpaceOnUse">
      <stop stop-color="#0284C7" />
      <stop offset="1" stop-color="#0EA5E9" />
    </linearGradient>
    <linearGradient id="paint4_linear" x1="360" y1="260" x2="640" y2="420" gradientUnits="userSpaceOnUse">
      <stop stop-color="#0F172A" />
      <stop offset="1" stop-color="#1E293B" />
    </linearGradient>
  </defs>
</svg>
