<svg width="720" height="480" viewBox="0 0 720 480" fill="none" xmlns="http://www.w3.org/2000/svg">
  <rect width="720" height="480" rx="40" fill="url(#paint0_linear)" />
  <rect x="80" y="80" width="240" height="160" rx="24" fill="url(#paint1_linear)" opacity="0.95" />
  <rect x="340" y="80" width="300" height="120" rx="24" fill="url(#paint2_linear)" opacity="0.9" />
  <rect x="80" y="260" width="220" height="140" rx="24" fill="url(#paint3_linear)" opacity="0.9" />
  <rect x="320" y="240" width="300" height="160" rx="28" fill="url(#paint4_linear)" opacity="0.95" />
  <circle cx="200" cy="220" r="52" fill="#FFFFFF" opacity="0.18" />
  <circle cx="520" cy="320" r="70" fill="#FFFFFF" opacity="0.12" />
  <rect x="120" y="120" width="160" height="10" rx="5" fill="white" opacity="0.7" />
  <rect x="120" y="145" width="120" height="10" rx="5" fill="white" opacity="0.52" />
  <rect x="360" y="120" width="200" height="10" rx="5" fill="white" opacity="0.7" />
  <rect x="360" y="145" width="180" height="10" rx="5" fill="white" opacity="0.55" />
  <rect x="360" y="170" width="120" height="10" rx="5" fill="white" opacity="0.4" />
  <rect x="360" y="285" width="220" height="10" rx="5" fill="white" opacity="0.7" />
  <rect x="360" y="310" width="200" height="10" rx="5" fill="white" opacity="0.55" />
  <rect x="360" y="335" width="150" height="10" rx="5" fill="white" opacity="0.42" />
  <defs>
    <linearGradient id="paint0_linear" x1="100" y1="40" x2="620" y2="440" gradientUnits="userSpaceOnUse">
      <stop stop-color="#D7F3FF" />
      <stop offset="1" stop-color="#ECE6FF" />
    </linearGradient>
    <linearGradient id="paint1_linear" x1="80" y1="80" x2="320" y2="240" gradientUnits="userSpaceOnUse">
      <stop stop-color="#0EA5E9" />
      <stop offset="1" stop-color="#6366F1" />
    </linearGradient>
    <linearGradient id="paint2_linear" x1="340" y1="80" x2="640" y2="200" gradientUnits="userSpaceOnUse">
      <stop stop-color="#38BDF8" />
      <stop offset="1" stop-color="#8B5CF6" />
    </linearGradient>
    <linearGradient id="paint3_linear" x1="80" y1="260" x2="300" y2="400" gradientUnits="userSpaceOnUse">
      <stop stop-color="#1D4ED8" />
      <stop offset="1" stop-color="#3B82F6" />
    </linearGradient>
    <linearGradient id="paint4_linear" x1="320" y1="240" x2="620" y2="400" gradientUnits="userSpaceOnUse">
      <stop stop-color="#111827" />
      <stop offset="1" stop-color="#312E81" />
    </linearGradient>
  </defs>
</svg>
