<svg width="720" height="480" viewBox="0 0 720 480" fill="none" xmlns="http://www.w3.org/2000/svg">
  <rect width="720" height="480" rx="40" fill="url(#paint0_linear)" />
  <rect x="80" y="80" width="280" height="160" rx="28" fill="url(#paint1_linear)" opacity="0.95" />
  <rect x="380" y="80" width="260" height="140" rx="28" fill="url(#paint2_linear)" opacity="0.92" />
  <rect x="110" y="270" width="240" height="140" rx="30" fill="url(#paint3_linear)" opacity="0.9" />
  <rect x="380" y="250" width="260" height="160" rx="32" fill="url(#paint4_linear)" opacity="0.95" />
  <circle cx="230" cy="180" r="58" fill="#FFFFFF" opacity="0.12" />
  <circle cx="520" cy="330" r="72" fill="#FFFFFF" opacity="0.1" />
  <rect x="120" y="120" width="190" height="12" rx="6" fill="white" opacity="0.7" />
  <rect x="120" y="148" width="160" height="12" rx="6" fill="white" opacity="0.52" />
  <rect x="400" y="120" width="200" height="12" rx="6" fill="white" opacity="0.7" />
  <rect x="400" y="148" width="160" height="12" rx="6" fill="white" opacity="0.52" />
  <rect x="400" y="176" width="120" height="12" rx="6" fill="white" opacity="0.4" />
  <rect x="400" y="292" width="200" height="12" rx="6" fill="white" opacity="0.7" />
  <rect x="400" y="320" width="170" height="12" rx="6" fill="white" opacity="0.54" />
  <rect x="400" y="348" width="120" height="12" rx="6" fill="white" opacity="0.4" />
  <defs>
    <linearGradient id="paint0_linear" x1="100" y1="40" x2="620" y2="440" gradientUnits="userSpaceOnUse">
      <stop stop-color="#E0F2FE" />
      <stop offset="1" stop-color="#F3F4FF" />
    </linearGradient>
    <linearGradient id="paint1_linear" x1="80" y1="80" x2="360" y2="240" gradientUnits="userSpaceOnUse">
      <stop stop-color="#2563EB" />
      <stop offset="1" stop-color="#1D4ED8" />
    </linearGradient>
    <linearGradient id="paint2_linear" x1="380" y1="80" x2="640" y2="220" gradientUnits="userSpaceOnUse">
      <stop stop-color="#10B981" />
      <stop offset="1" stop-color="#0EA5E9" />
    </linearGradient>
    <linearGradient id="paint3_linear" x1="110" y1="270" x2="350" y2="410" gradientUnits="userSpaceOnUse">
      <stop stop-color="#22D3EE" />
      <stop offset="1" stop-color="#6366F1" />
    </linearGradient>
    <linearGradient id="paint4_linear" x1="380" y1="250" x2="640" y2="410" gradientUnits="userSpaceOnUse">
      <stop stop-color="#0B1120" />
      <stop offset="1" stop-color="#1E293B" />
    </linearGradient>
  </defs>
</svg>
