<svg width="720" height="480" viewBox="0 0 720 480" fill="none" xmlns="http://www.w3.org/2000/svg">
  <rect width="720" height="480" rx="40" fill="url(#paint0_linear)" />
  <rect x="80" y="90" width="250" height="150" rx="28" fill="url(#paint1_linear)" opacity="0.95" />
  <rect x="360" y="70" width="260" height="160" rx="32" fill="url(#paint2_linear)" opacity="0.9" />
  <rect x="110" y="280" width="220" height="120" rx="28" fill="url(#paint3_linear)" opacity="0.9" />
  <rect x="360" y="260" width="260" height="140" rx="28" fill="url(#paint4_linear)" opacity="0.95" />
  <circle cx="220" cy="180" r="56" fill="#FFFFFF" opacity="0.15" />
  <circle cx="520" cy="320" r="66" fill="#FFFFFF" opacity="0.12" />
  <rect x="120" y="125" width="170" height="12" rx="6" fill="white" opacity="0.68" />
  <rect x="120" y="152" width="140" height="12" rx="6" fill="white" opacity="0.5" />
  <rect x="390" y="110" width="200" height="12" rx="6" fill="white" opacity="0.65" />
  <rect x="390" y="138" width="160" height="12" rx="6" fill="white" opacity="0.5" />
  <rect x="390" y="166" width="120" height="12" rx="6" fill="white" opacity="0.38" />
  <rect x="390" y="300" width="210" height="12" rx="6" fill="white" opacity="0.7" />
  <rect x="390" y="328" width="160" height="12" rx="6" fill="white" opacity="0.54" />
  <defs>
    <linearGradient id="paint0_linear" x1="120" y1="40" x2="600" y2="440" gradientUnits="userSpaceOnUse">
      <stop stop-color="#FFE8D8" />
      <stop offset="1" stop-color="#F3E8FF" />
    </linearGradient>
    <linearGradient id="paint1_linear" x1="80" y1="90" x2="330" y2="240" gradientUnits="userSpaceOnUse">
      <stop stop-color="#F97316" />
      <stop offset="1" stop-color="#FB7185" />
    </linearGradient>
    <linearGradient id="paint2_linear" x1="360" y1="70" x2="620" y2="230" gradientUnits="userSpaceOnUse">
      <stop stop-color="#EC4899" />
      <stop offset="1" stop-color="#6366F1" />
    </linearGradient>
    <linearGradient id="paint3_linear" x1="110" y1="280" x2="330" y2="400" gradientUnits="userSpaceOnUse">
      <stop stop-color="#F97316" />
      <stop offset="1" stop-color="#FACC15" />
    </linearGradient>
    <linearGradient id="paint4_linear" x1="360" y1="260" x2="620" y2="400" gradientUnits="userSpaceOnUse">
      <stop stop-color="#312E81" />
      <stop offset="1" stop-color="#4C1D95" />
    </linearGradient>
  </defs>
</svg>
