<svg width="720" height="480" viewBox="0 0 720 480" fill="none" xmlns="http://www.w3.org/2000/svg">
  <rect width="720" height="480" rx="40" fill="url(#paint0_linear)" />
  <rect x="80" y="90" width="260" height="150" rx="26" fill="url(#paint1_linear)" opacity="0.92" />
  <rect x="360" y="90" width="280" height="150" rx="26" fill="url(#paint2_linear)" opacity="0.95" />
  <rect x="110" y="270" width="220" height="130" rx="26" fill="url(#paint3_linear)" opacity="0.9" />
  <rect x="360" y="260" width="280" height="140" rx="30" fill="url(#paint4_linear)" opacity="0.95" />
  <circle cx="210" cy="190" r="54" fill="#FFFFFF" opacity="0.14" />
  <circle cx="520" cy="330" r="70" fill="#FFFFFF" opacity="0.1" />
  <rect x="120" y="125" width="170" height="10" rx="5" fill="white" opacity="0.7" />
  <rect x="120" y="150" width="130" height="10" rx="5" fill="white" opacity="0.5" />
  <rect x="390" y="130" width="210" height="10" rx="5" fill="white" opacity="0.7" />
  <rect x="390" y="155" width="170" height="10" rx="5" fill="white" opacity="0.52" />
  <rect x="390" y="180" width="120" height="10" rx="5" fill="white" opacity="0.38" />
  <rect x="390" y="302" width="210" height="10" rx="5" fill="white" opacity="0.7" />
  <rect x="390" y="328" width="170" height="10" rx="5" fill="white" opacity="0.55" />
  <rect x="390" y="354" width="130" height="10" rx="5" fill="white" opacity="0.42" />
  <defs>
    <linearGradient id="paint0_linear" x1="140" y1="60" x2="580" y2="420" gradientUnits="userSpaceOnUse">
      <stop stop-color="#E0F2FE" />
      <stop offset="1" stop-color="#FEF3C7" />
    </linearGradient>
    <linearGradient id="paint1_linear" x1="80" y1="90" x2="340" y2="240" gradientUnits="userSpaceOnUse">
      <stop stop-color="#0EA5E9" />
      <stop offset="1" stop-color="#22D3EE" />
    </linearGradient>
    <linearGradient id="paint2_linear" x1="360" y1="90" x2="640" y2="240" gradientUnits="userSpaceOnUse">
      <stop stop-color="#FACC15" />
      <stop offset="1" stop-color="#FB923C" />
    </linearGradient>
    <linearGradient id="paint3_linear" x1="110" y1="270" x2="330" y2="400" gradientUnits="userSpaceOnUse">
      <stop stop-color="#22D3EE" />
      <stop offset="1" stop-color="#14B8A6" />
    </linearGradient>
    <linearGradient id="paint4_linear" x1="360" y1="260" x2="640" y2="400" gradientUnits="userSpaceOnUse">
      <stop stop-color="#334155" />
      <stop offset="1" stop-color="#1E293B" />
    </linearGradient>
  </defs>
</svg>
