<svg width="720" height="520" viewBox="0 0 720 520" fill="none" xmlns="http://www.w3.org/2000/svg">
  <rect width="720" height="520" rx="48" fill="url(#paint0_linear)" />
  <rect x="60" y="80" width="320" height="200" rx="32" fill="url(#paint1_linear)" opacity="0.9" />
  <rect x="60" y="320" width="180" height="120" rx="24" fill="url(#paint2_linear)" opacity="0.9" />
  <rect x="260" y="320" width="240" height="120" rx="24" fill="url(#paint3_linear)" opacity="0.9" />
  <rect x="400" y="80" width="260" height="140" rx="28" fill="url(#paint4_linear)" opacity="0.85" />
  <rect x="400" y="240" width="260" height="200" rx="32" fill="url(#paint5_linear)" opacity="0.95" />
  <circle cx="180" cy="170" r="48" fill="#ffffff" opacity="0.15" />
  <circle cx="540" cy="300" r="68" fill="#ffffff" opacity="0.12" />
  <rect x="120" y="140" width="200" height="12" rx="6" fill="white" opacity="0.7" />
  <rect x="120" y="166" width="160" height="12" rx="6" fill="white" opacity="0.55" />
  <rect x="120" y="192" width="120" height="12" rx="6" fill="white" opacity="0.4" />
  <rect x="420" y="120" width="200" height="12" rx="6" fill="white" opacity="0.7" />
  <rect x="420" y="148" width="160" height="12" rx="6" fill="white" opacity="0.55" />
  <rect x="420" y="306" width="220" height="12" rx="6" fill="white" opacity="0.7" />
  <rect x="420" y="334" width="180" height="12" rx="6" fill="white" opacity="0.55" />
  <rect x="420" y="362" width="140" height="12" rx="6" fill="white" opacity="0.42" />
  <defs>
    <linearGradient id="paint0_linear" x1="80" y1="40" x2="640" y2="480" gradientUnits="userSpaceOnUse">
      <stop stop-color="#DCEFFF" />
      <stop offset="1" stop-color="#EBE4FF" />
    </linearGradient>
    <linearGradient id="paint1_linear" x1="60" y1="80" x2="380" y2="280" gradientUnits="userSpaceOnUse">
      <stop stop-color="#4F8BFF" />
      <stop offset="1" stop-color="#8A66FF" />
    </linearGradient>
    <linearGradient id="paint2_linear" x1="60" y1="320" x2="240" y2="440" gradientUnits="userSpaceOnUse">
      <stop stop-color="#3B82F6" />
      <stop offset="1" stop-color="#60A5FA" />
    </linearGradient>
    <linearGradient id="paint3_linear" x1="260" y1="320" x2="500" y2="440" gradientUnits="userSpaceOnUse">
      <stop stop-color="#8B5CF6" />
      <stop offset="1" stop-color="#6366F1" />
    </linearGradient>
    <linearGradient id="paint4_linear" x1="400" y1="80" x2="660" y2="220" gradientUnits="userSpaceOnUse">
      <stop stop-color="#0EA5E9" />
      <stop offset="1" stop-color="#6366F1" />
    </linearGradient>
    <linearGradient id="paint5_linear" x1="400" y1="240" x2="660" y2="440" gradientUnits="userSpaceOnUse">
      <stop stop-color="#0F172A" />
      <stop offset="1" stop-color="#1E3A8A" />
    </linearGradient>
  </defs>
</svg>
