<svg width="160" height="48" viewBox="0 0 160 48" fill="none" xmlns="http://www.w3.org/2000/svg">
  <rect x="2" y="6" width="44" height="36" rx="12" fill="#342669" />
  <path d="M16 18.5V32h4.6v-8.2h7.4V18.5H16Z" fill="white"/>
  <path d="M58.2 32c-4.9 0-8.4-3.6-8.4-8.2v-.1c0-4.6 3.5-8.3 8.5-8.3 3.1 0 5 1 6.6 2.6l-2.8 3.1c-1.1-1-2.2-1.6-3.7-1.6-2.2 0-3.7 1.8-3.7 4v.1c0 2.2 1.5 4.1 3.7 4.1 1.7 0 2.7-.7 3.9-1.7l2.8 2.8c-1.7 1.8-3.6 3.2-6.9 3.2Zm14.3-.3V15.7h4.7v12.2h6.2V32h-10.9Zm18.4.3c-4.9 0-8.4-3.6-8.4-8.2v-.1c0-4.6 3.5-8.3 8.5-8.3 3.1 0 5 1 6.6 2.6l-2.8 3.1c-1.2-1-2.2-1.6-3.7-1.6-2.2 0-3.7 1.8-3.7 4v.1c0 2.2 1.5 4.1 3.7 4.1 1.7 0 2.7-.7 3.9-1.7l2.8 2.8c-1.7 1.8-3.6 3.2-6.9 3.2Zm19.5 0c-4.9 0-8.4-3.6-8.4-8.2v-.1c0-4.6 3.5-8.3 8.5-8.3 3.1 0 5 1 6.6 2.6l-2.8 3.1c-1.1-1-2.2-1.6-3.7-1.6-2.2 0-3.7 1.8-3.7 4v.1c0 2.2 1.5 4.1 3.7 4.1 1.7 0 2.7-.7 3.9-1.7l2.8 2.8c-1.7 1.8-3.6 3.2-6.9 3.2Zm14.3-.3V15.7h4.7v12.2h6.2V32h-10.9Z" fill="#1E1E3E"/>
</svg>
