<svg width="640" height="440" viewBox="0 0 640 440" fill="none" xmlns="http://www.w3.org/2000/svg">
  <rect width="640" height="440" rx="42" fill="url(#paint0_linear)" />
  <rect x="70" y="80" width="240" height="140" rx="26" fill="url(#paint1_linear)" opacity="0.94" />
  <rect x="330" y="70" width="240" height="150" rx="28" fill="url(#paint2_linear)" opacity="0.9" />
  <rect x="100" y="250" width="220" height="140" rx="30" fill="url(#paint3_linear)" opacity="0.9" />
  <rect x="330" y="240" width="240" height="150" rx="30" fill="url(#paint4_linear)" opacity="0.95" />
  <circle cx="190" cy="160" r="52" fill="#FFFFFF" opacity="0.14" />
  <circle cx="480" cy="300" r="60" fill="#FFFFFF" opacity="0.1" />
  <rect x="110" y="120" width="160" height="12" rx="6" fill="white" opacity="0.7" />
  <rect x="110" y="148" width="130" height="12" rx="6" fill="white" opacity="0.52" />
  <rect x="360" y="110" width="170" height="12" rx="6" fill="white" opacity="0.7" />
  <rect x="360" y="138" width="140" height="12" rx="6" fill="white" opacity="0.53" />
  <rect x="360" y="166" width="100" height="12" rx="6" fill="white" opacity="0.4" />
  <rect x="360" y="285" width="180" height="12" rx="6" fill="white" opacity="0.7" />
  <rect x="360" y="313" width="140" height="12" rx="6" fill="white" opacity="0.54" />
  <rect x="360" y="341" width="110" height="12" rx="6" fill="white" opacity="0.42" />
  <defs>
    <linearGradient id="paint0_linear" x1="90" y1="40" x2="540" y2="400" gradientUnits="userSpaceOnUse">
      <stop stop-color="#FEF3C7" />
      <stop offset="1" stop-color="#FDE68A" />
    </linearGradient>
    <linearGradient id="paint1_linear" x1="70" y1="80" x2="310" y2="220" gradientUnits="userSpaceOnUse">
      <stop stop-color="#F59E0B" />
      <stop offset="1" stop-color="#F97316" />
    </linearGradient>
    <linearGradient id="paint2_linear" x1="330" y1="70" x2="570" y2="220" gradientUnits="userSpaceOnUse">
      <stop stop-color="#FB7185" />
      <stop offset="1" stop-color="#F97316" />
    </linearGradient>
    <linearGradient id="paint3_linear" x1="100" y1="250" x2="320" y2="390" gradientUnits="userSpaceOnUse">
      <stop stop-color="#FBBF24" />
      <stop offset="1" stop-color="#F59E0B" />
    </linearGradient>
    <linearGradient id="paint4_linear" x1="330" y1="240" x2="570" y2="390" gradientUnits="userSpaceOnUse">
      <stop stop-color="#7C2D12" />
      <stop offset="1" stop-color="#9A3412" />
    </linearGradient>
  </defs>
</svg>
