<svg width="640" height="440" viewBox="0 0 640 440" fill="none" xmlns="http://www.w3.org/2000/svg">
  <rect width="640" height="440" rx="42" fill="url(#paint0_linear)" />
  <rect x="70" y="80" width="230" height="140" rx="26" fill="url(#paint1_linear)" opacity="0.94" />
  <rect x="320" y="80" width="250" height="140" rx="28" fill="url(#paint2_linear)" opacity="0.92" />
  <rect x="100" y="250" width="220" height="140" rx="30" fill="url(#paint3_linear)" opacity="0.92" />
  <rect x="330" y="240" width="240" height="150" rx="30" fill="url(#paint4_linear)" opacity="0.95" />
  <circle cx="185" cy="160" r="52" fill="#FFFFFF" opacity="0.14" />
  <circle cx="480" cy="300" r="62" fill="#FFFFFF" opacity="0.1" />
  <rect x="110" y="120" width="160" height="10" rx="5" fill="white" opacity="0.7" />
  <rect x="110" y="145" width="130" height="10" rx="5" fill="white" opacity="0.5" />
  <rect x="350" y="120" width="180" height="10" rx="5" fill="white" opacity="0.7" />
  <rect x="350" y="145" width="140" height="10" rx="5" fill="white" opacity="0.53" />
  <rect x="350" y="170" width="100" height="10" rx="5" fill="white" opacity="0.4" />
  <rect x="350" y="290" width="180" height="10" rx="5" fill="white" opacity="0.7" />
  <rect x="350" y="315" width="150" height="10" rx="5" fill="white" opacity="0.55" />
  <rect x="350" y="340" width="110" height="10" rx="5" fill="white" opacity="0.42" />
  <defs>
    <linearGradient id="paint0_linear" x1="90" y1="40" x2="540" y2="400" gradientUnits="userSpaceOnUse">
      <stop stop-color="#E0F2FE" />
      <stop offset="1" stop-color="#FFE4E6" />
    </linearGradient>
    <linearGradient id="paint1_linear" x1="70" y1="80" x2="300" y2="220" gradientUnits="userSpaceOnUse">
      <stop stop-color="#14B8A6" />
      <stop offset="1" stop-color="#0EA5E9" />
    </linearGradient>
    <linearGradient id="paint2_linear" x1="320" y1="80" x2="570" y2="220" gradientUnits="userSpaceOnUse">
      <stop stop-color="#0EA5E9" />
      <stop offset="1" stop-color="#6366F1" />
    </linearGradient>
    <linearGradient id="paint3_linear" x1="100" y1="250" x2="320" y2="390" gradientUnits="userSpaceOnUse">
      <stop stop-color="#0EA5E9" />
      <stop offset="1" stop-color="#22C55E" />
    </linearGradient>
    <linearGradient id="paint4_linear" x1="330" y1="240" x2="570" y2="390" gradientUnits="userSpaceOnUse">
      <stop stop-color="#134E4A" />
      <stop offset="1" stop-color="#064E3B" />
    </linearGradient>
  </defs>
</svg>
