<svg width="720" height="520" viewBox="0 0 720 520" fill="none" xmlns="http://www.w3.org/2000/svg">
  <rect width="720" height="520" rx="48" fill="url(#paint0_linear)" />
  <rect x="80" y="80" width="260" height="170" rx="28" fill="url(#paint1_linear)" opacity="0.95" />
  <rect x="360" y="80" width="280" height="150" rx="28" fill="url(#paint2_linear)" opacity="0.9" />
  <rect x="110" y="280" width="240" height="140" rx="32" fill="url(#paint3_linear)" opacity="0.9" />
  <rect x="360" y="260" width="280" height="160" rx="34" fill="url(#paint4_linear)" opacity="0.95" />
  <circle cx="210" cy="180" r="60" fill="#FFFFFF" opacity="0.15" />
  <circle cx="530" cy="330" r="74" fill="#FFFFFF" opacity="0.1" />
  <rect x="120" y="120" width="180" height="12" rx="6" fill="white" opacity="0.75" />
  <rect x="120" y="150" width="140" height="12" rx="6" fill="white" opacity="0.55" />
  <rect x="380" y="120" width="200" height="12" rx="6" fill="white" opacity="0.7" />
  <rect x="380" y="148" width="160" height="12" rx="6" fill="white" opacity="0.52" />
  <rect x="380" y="176" width="120" height="12" rx="6" fill="white" opacity="0.4" />
  <rect x="380" y="302" width="220" height="12" rx="6" fill="white" opacity="0.72" />
  <rect x="380" y="330" width="180" height="12" rx="6" fill="white" opacity="0.55" />
  <rect x="380" y="358" width="140" height="12" rx="6" fill="white" opacity="0.44" />
  <defs>
    <linearGradient id="paint0_linear" x1="100" y1="40" x2="620" y2="480" gradientUnits="userSpaceOnUse">
      <stop stop-color="#E0F2FE" />
      <stop offset="1" stop-color="#EDE9FE" />
    </linearGradient>
    <linearGradient id="paint1_linear" x1="80" y1="80" x2="340" y2="250" gradientUnits="userSpaceOnUse">
      <stop stop-color="#2563EB" />
      <stop offset="1" stop-color="#1D4ED8" />
    </linearGradient>
    <linearGradient id="paint2_linear" x1="360" y1="80" x2="640" y2="230" gradientUnits="userSpaceOnUse">
      <stop stop-color="#0EA5E9" />
      <stop offset="1" stop-color="#22D3EE" />
    </linearGradient>
    <linearGradient id="paint3_linear" x1="110" y1="280" x2="350" y2="420" gradientUnits="userSpaceOnUse">
      <stop stop-color="#8147F9" />
      <stop offset="1" stop-color="#6366F1" />
    </linearGradient>
    <linearGradient id="paint4_linear" x1="360" y1="260" x2="640" y2="420" gradientUnits="userSpaceOnUse">
      <stop stop-color="#0F172A" />
      <stop offset="1" stop-color="#1E293B" />
    </linearGradient>
  </defs>
</svg>
