<svg width="720" height="480" viewBox="0 0 720 480" fill="none" xmlns="http://www.w3.org/2000/svg">
  <rect width="720" height="480" rx="42" fill="url(#paint0_linear)" />
  <rect x="80" y="90" width="250" height="150" rx="26" fill="url(#paint1_linear)" opacity="0.92" />
  <rect x="360" y="90" width="280" height="140" rx="28" fill="url(#paint2_linear)" opacity="0.95" />
  <rect x="110" y="270" width="240" height="140" rx="28" fill="url(#paint3_linear)" opacity="0.9" />
  <rect x="360" y="260" width="280" height="160" rx="32" fill="url(#paint4_linear)" opacity="0.96" />
  <circle cx="210" cy="190" r="54" fill="#FFFFFF" opacity="0.12" />
  <circle cx="520" cy="330" r="70" fill="#FFFFFF" opacity="0.1" />
  <rect x="120" y="130" width="170" height="12" rx="6" fill="white" opacity="0.7" />
  <rect x="120" y="158" width="140" height="12" rx="6" fill="white" opacity="0.52" />
  <rect x="380" y="125" width="210" height="12" rx="6" fill="white" opacity="0.7" />
  <rect x="380" y="153" width="170" height="12" rx="6" fill="white" opacity="0.55" />
  <rect x="380" y="181" width="130" height="12" rx="6" fill="white" opacity="0.42" />
  <rect x="380" y="305" width="220" height="12" rx="6" fill="white" opacity="0.7" />
  <rect x="380" y="333" width="180" height="12" rx="6" fill="white" opacity="0.55" />
  <rect x="380" y="361" width="140" height="12" rx="6" fill="white" opacity="0.42" />
  <defs>
    <linearGradient id="paint0_linear" x1="120" y1="50" x2="600" y2="430" gradientUnits="userSpaceOnUse">
      <stop stop-color="#E0E7FF" />
      <stop offset="1" stop-color="#F1F5F9" />
    </linearGradient>
    <linearGradient id="paint1_linear" x1="80" y1="90" x2="330" y2="240" gradientUnits="userSpaceOnUse">
      <stop stop-color="#3B82F6" />
      <stop offset="1" stop-color="#2563EB" />
    </linearGradient>
    <linearGradient id="paint2_linear" x1="360" y1="90" x2="640" y2="230" gradientUnits="userSpaceOnUse">
      <stop stop-color="#0EA5E9" />
      <stop offset="1" stop-color="#22D3EE" />
    </linearGradient>
    <linearGradient id="paint3_linear" x1="110" y1="270" x2="350" y2="410" gradientUnits="userSpaceOnUse">
      <stop stop-color="#1E40AF" />
      <stop offset="1" stop-color="#312E81" />
    </linearGradient>
    <linearGradient id="paint4_linear" x1="360" y1="260" x2="640" y2="420" gradientUnits="userSpaceOnUse">
      <stop stop-color="#0F172A" />
      <stop offset="1" stop-color="#1E293B" />
    </linearGradient>
  </defs>
</svg>
